0
SECTION
2
HEADER
9
$INSUNITS
70
4
0
ENDSEC
0
SECTION
2
TABLES
0
TABLE
2
LTYPE
0
LTYPE
72
65
70
64
2
CONTINUOUS
3
______
73
0
40
0
0
ENDTAB
0
TABLE
2
LAYER
0
ENDTAB
0
ENDSEC
0
SECTION
2
ENTITIES
0
ARC
8
0
10
181.0857699
20
-173.1242605
40
76.7761377
50
34.1933388
51
111.9084225
0
LINE
8
0
10
244.5444867
20
-186.8769277
11
235.7285827
21
-197.894104
0
LINE
8
0
10
142.7636927
20
-197.2693155
11
142.7636927
21
-195.0693155
0
LINE
8
0
10
142.7636927
20
-181.4693155
11
142.7636927
21
-119.3773436
0
ARC
8
0
10
179.9835559
20
-120.0377729
40
37.2258838
50
169.7453402
51
178.9553903
0
ARC
8
0
10
163.7486212
20
-116.9953619
40
20.7089207
50
154.7960072
51
170.0320042
0
ARC
8
0
10
155.2026272
20
-112.7054725
40
11.1523423
50
104.9597666
51
156.0405985
0
LINE
8
0
10
143.7636927
20
-198.2693155
11
234.9477887
21
-198.2693155
0
LINE
8
0
10
244.7636927
20
-186.2521392
11
244.7636927
21
-130.5390397
0
ARC
8
0
10
152.065613
20
-100.9650054
40
1
50
284.9597666
51
291.9084225
0
ARC
8
0
10
143.7636927
20
-119.3773436
40
1
50
178.9553903
51
180
0
ARC
8
0
10
143.7636927
20
-197.2693155
40
1
50
180
51
270
0
ARC
8
0
10
234.9477887
20
-197.2693155
40
1
50
270
51
321.333333
0
ARC
8
0
10
243.7636927
20
-186.2521392
40
1
50
321.333333
51
0
0
ARC
8
0
10
243.7636928
20
-130.5390397
40
1
50
0
51
34.1933388
0
LINE
8
0
10
160.3436097
20
-125.2763324
11
147.4920473
21
-123.3174181
0
ARC
8
0
10
147.4167045
20
-123.811709
40
0.5
50
81.3333333
51
171.3333333
0
LINE
8
0
10
146.9224136
20
-123.7363661
11
144.9634993
21
-136.5879285
0
ARC
8
0
10
145.4577902
20
-136.6632713
40
0.5
50
171.3333333
51
261.3333333
0
LINE
8
0
10
145.3824473
20
-137.1575622
11
158.2340097
21
-139.1164765
0
ARC
8
0
10
158.3093525
20
-138.6221856
40
0.5
50
261.3333333
51
351.3333333
0
LINE
8
0
10
158.8036434
20
-138.6975285
11
160.7625577
21
-125.8459661
0
ARC
8
0
10
160.2682668
20
-125.7706233
40
0.5
50
351.3333333
51
81.3333333
0
LINE
8
0
10
148.2454758
20
-118.3745095
11
161.0970382
21
-120.3334238
0
ARC
8
0
10
161.172381
20
-119.8391329
40
0.5
50
261.3333333
51
351.3333333
0
LINE
8
0
10
161.6666719
20
-119.9144758
11
163.6255862
21
-107.0629134
0
ARC
8
0
10
163.1312953
20
-106.9875706
40
0.5
50
351.3333333
51
81.3333333
0
LINE
8
0
10
163.2066382
20
-106.4932797
11
150.3550758
21
-104.5343654
0
ARC
8
0
10
150.279733
20
-105.0286563
40
0.5
50
81.3333333
51
171.3333333
0
LINE
8
0
10
149.7854421
20
-104.9533134
11
147.8265278
21
-117.8048758
0
ARC
8
0
10
148.3208187
20
-117.8802186
40
0.5
50
171.3333333
51
261.3333333
0
LINE
8
0
10
162.0841906
20
-149.5506138
11
174.7161183
21
-152.6221612
0
ARC
8
0
10
174.8342547
20
-152.1363179
40
0.5
50
256.3333333
51
346.3333333
0
LINE
8
0
10
175.3200981
20
-152.2544543
11
178.3916455
21
-139.6225266
0
ARC
8
0
10
177.9058022
20
-139.5043902
40
0.5
50
346.3333333
51
76.3333333
0
LINE
8
0
10
178.0239386
20
-139.0185468
11
165.3920109
21
-135.9469994
0
ARC
8
0
10
165.2738745
20
-136.4328427
40
0.5
50
76.3333333
51
166.3333333
0
LINE
8
0
10
164.7880311
20
-136.3147063
11
161.7164837
21
-148.946634
0
ARC
8
0
10
162.202327
20
-149.0647704
40
0.5
50
166.3333333
51
256.3333333
0
LINE
8
0
10
166.5733754
20
-131.0885657
11
179.2053031
21
-134.1601131
0
ARC
8
0
10
179.3234395
20
-133.6742698
40
0.5
50
256.3333333
51
346.3333333
0
LINE
8
0
10
179.8092829
20
-133.7924062
11
182.8808303
21
-121.1604785
0
ARC
8
0
10
182.394987
20
-121.0423421
40
0.5
50
346.3333333
51
76.3333333
0
LINE
8
0
10
182.5131234
20
-120.5564987
11
169.8811957
21
-117.4849513
0
ARC
8
0
10
169.7630593
20
-117.9707946
40
0.5
50
76.3333333
51
166.3333333
0
LINE
8
0
10
169.2772159
20
-117.8526582
11
166.2056685
21
-130.4845859
0
ARC
8
0
10
166.6915118
20
-130.6027223
40
0.5
50
166.3333333
51
256.3333333
0
LINE
8
0
10
171.0625602
20
-112.6265176
11
183.6944879
21
-115.698065
0
ARC
8
0
10
183.8126243
20
-115.2122217
40
0.5
50
256.3333333
51
346.3333333
0
LINE
8
0
10
184.2984677
20
-115.3303581
11
187.3700151
21
-102.6984304
0
ARC
8
0
10
186.8841718
20
-102.580294
40
0.5
50
346.3333333
51
76.3333333
0
LINE
8
0
10
187.0023082
20
-102.0944506
11
174.3703805
21
-99.0229032
0
ARC
8
0
10
174.2522441
20
-99.5087465
40
0.5
50
76.3333333
51
166.3333333
0
LINE
8
0
10
173.7664007
20
-99.3906101
11
170.6948533
21
-112.0225378
0
ARC
8
0
10
171.1806966
20
-112.1406742
40
0.5
50
166.3333333
51
256.3333333
0
LINE
8
0
10
181.753769
20
-149.6101207
11
194.2076327
21
-153.3385627
0
ARC
8
0
10
194.3510343
20
-152.8595679
40
0.5
50
253.3333333
51
343.3333333
0
LINE
8
0
10
194.8300291
20
-153.0029696
11
198.5584711
21
-140.5491059
0
ARC
8
0
10
198.0794763
20
-140.4057043
40
0.5
50
343.3333333
51
73.3333333
0
LINE
8
0
10
198.222878
20
-139.9267095
11
185.7690143
21
-136.1982675
0
ARC
8
0
10
185.6256127
20
-136.6772623
40
0.5
50
73.3333333
51
163.3333333
0
LINE
8
0
10
185.1466179
20
-136.5338606
11
181.4181759
21
-148.9877243
0
ARC
8
0
10
181.8971707
20
-149.1311259
40
0.5
50
163.3333333
51
253.3333333
0
LINE
8
0
10
187.2030304
20
-131.40832
11
199.6568941
21
-135.136762
0
ARC
8
0
10
199.8002957
20
-134.6577672
40
0.5
50
253.3333333
51
343.3333333
0
LINE
8
0
10
200.2792905
20
-134.8011689
11
204.0077325
21
-122.3473052
0
ARC
8
0
10
203.5287377
20
-122.2039036
40
0.5
50
343.3333333
51
73.3333333
0
LINE
8
0
10
203.6721394
20
-121.7249088
11
191.2182757
21
-117.9964668
0
ARC
8
0
10
191.0748741
20
-118.4754616
40
0.5
50
73.3333333
51
163.3333333
0
LINE
8
0
10
190.5958793
20
-118.3320599
11
186.8674373
21
-130.7859236
0
ARC
8
0
10
187.3464321
20
-130.9293252
40
0.5
50
163.3333333
51
253.3333333
0
LINE
8
0
10
192.6522918
20
-113.2065193
11
205.1061555
21
-116.9349613
0
ARC
8
0
10
205.2495571
20
-116.4559665
40
0.5
50
253.3333333
51
343.3333333
0
LINE
8
0
10
205.7285519
20
-116.5993682
11
209.4569939
21
-104.1455045
0
ARC
8
0
10
208.9779991
20
-104.0021029
40
0.5
50
343.3333333
51
73.3333333
0
LINE
8
0
10
209.1214008
20
-103.5231081
11
196.6675371
21
-99.7946661
0
ARC
8
0
10
196.5241355
20
-100.2736609
40
0.5
50
73.3333333
51
163.3333333
0
LINE
8
0
10
196.0451407
20
-100.1302592
11
192.3166987
21
-112.5841229
0
ARC
8
0
10
192.7956935
20
-112.7275245
40
0.5
50
163.3333333
51
253.3333333
0
LINE
8
0
10
197.7758653
20
-162.3401024
11
210.229729
21
-166.0685444
0
ARC
8
0
10
210.3731306
20
-165.5895496
40
0.5
50
253.3333333
51
343.3333333
0
LINE
8
0
10
210.8521254
20
-165.7329513
11
214.5805674
21
-153.2790876
0
ARC
8
0
10
214.1015726
20
-153.135686
40
0.5
50
343.3333333
51
73.3333333
0
LINE
8
0
10
214.2449743
20
-152.6566912
11
201.7911106
21
-148.9282492
0
ARC
8
0
10
201.647709
20
-149.407244
40
0.5
50
73.3333333
51
163.3333333
0
LINE
8
0
10
201.1687142
20
-149.2638423
11
197.4402722
21
-161.717706
0
ARC
8
0
10
197.919267
20
-161.8611076
40
0.5
50
163.3333333
51
253.3333333
0
LINE
8
0
10
203.2251267
20
-144.1383017
11
215.6789904
21
-147.8667437
0
ARC
8
0
10
215.822392
20
-147.3877489
40
0.5
50
253.3333333
51
343.3333333
0
LINE
8
0
10
216.3013868
20
-147.5311506
11
220.0298288
21
-135.0772869
0
ARC
8
0
10
219.550834
20
-134.9338853
40
0.5
50
343.3333333
51
73.3333333
0
LINE
8
0
10
219.6942357
20
-134.4548905
11
207.240372
21
-130.7264485
0
ARC
8
0
10
207.0969704
20
-131.2054433
40
0.5
50
73.3333333
51
163.3333333
0
LINE
8
0
10
206.6179756
20
-131.0620416
11
202.8895336
21
-143.5159053
0
ARC
8
0
10
203.3685284
20
-143.6593069
40
0.5
50
163.3333333
51
253.3333333
0
LINE
8
0
10
208.6743881
20
-125.936501
11
221.1282518
21
-129.664943
0
ARC
8
0
10
221.2716534
20
-129.1859482
40
0.5
50
253.3333333
51
343.3333333
0
LINE
8
0
10
221.7506482
20
-129.3293499
11
225.4790902
21
-116.8754862
0
ARC
8
0
10
225.0000954
20
-116.7320846
40
0.5
50
343.3333333
51
73.3333333
0
LINE
8
0
10
225.1434971
20
-116.2530898
11
212.6896334
21
-112.5246478
0
ARC
8
0
10
212.5462318
20
-113.0036426
40
0.5
50
73.3333333
51
163.3333333
0
LINE
8
0
10
212.067237
20
-112.8602409
11
208.338795
21
-125.3141046
0
ARC
8
0
10
208.8177898
20
-125.4575062
40
0.5
50
163.3333333
51
253.3333333
0
LINE
8
0
10
218.9747597
20
-157.7783734
11
231.4286234
21
-161.5068154
0
ARC
8
0
10
231.572025
20
-161.0278206
40
0.5
50
253.3333333
51
343.3333333
0
LINE
8
0
10
232.0510198
20
-161.1712223
11
235.7794618
21
-148.7173586
0
ARC
8
0
10
235.300467
20
-148.573957
40
0.5
50
343.3333333
51
73.3333333
0
LINE
8
0
10
235.4438687
20
-148.0949622
11
222.990005
21
-144.3665202
0
ARC
8
0
10
222.8466034
20
-144.845515
40
0.5
50
73.3333333
51
163.3333333
0
LINE
8
0
10
222.3676086
20
-144.7021133
11
218.6391666
21
-157.155977
0
ARC
8
0
10
219.1181614
20
-157.2993786
40
0.5
50
163.3333333
51
253.3333333
0
LINE
8
0
10
224.4240211
20
-139.5765727
11
236.8778848
21
-143.3050147
0
ARC
8
0
10
237.0212864
20
-142.8260199
40
0.5
50
253.3333333
51
343.3333333
0
LINE
8
0
10
237.5002812
20
-142.9694216
11
241.2287232
21
-130.5155579
0
ARC
8
0
10
240.7497284
20
-130.3721563
40
0.5
50
343.3333333
51
73.3333333
0
LINE
8
0
10
240.8931301
20
-129.8931615
11
228.4392664
21
-126.1647195
0
ARC
8
0
10
228.2958648
20
-126.6437143
40
0.5
50
73.3333333
51
163.3333333
0
LINE
8
0
10
227.81687
20
-126.5003126
11
224.088428
21
-138.9541763
0
ARC
8
0
10
224.5674228
20
-139.0975779
40
0.5
50
163.3333333
51
253.3333333
0
LINE
8
0
10
176.3045076
20
-167.8119214
11
188.7583713
21
-171.5403634
0
ARC
8
0
10
188.9017729
20
-171.0613686
40
0.5
50
253.3333333
51
343.3333333
0
LINE
8
0
10
189.3807677
20
-171.2047703
11
193.1092097
21
-158.7509066
0
ARC
8
0
10
192.6302149
20
-158.607505
40
0.5
50
343.3333333
51
73.3333333
0
LINE
8
0
10
192.7736166
20
-158.1285102
11
180.3197529
21
-154.4000682
0
ARC
8
0
10
180.1763513
20
-154.879063
40
0.5
50
73.3333333
51
163.3333333
0
LINE
8
0
10
179.6973565
20
-154.7356613
11
175.9689145
21
-167.189525
0
ARC
8
0
10
176.4479093
20
-167.3329266
40
0.5
50
163.3333333
51
253.3333333
0
LINE
8
0
10
231.3592599
20
-177.3206347
11
223.2370092
21
-187.4709571
0
ARC
8
0
10
223.6274062
20
-187.7833513
40
0.5
50
141.3333333
51
231.3333333
0
LINE
8
0
10
223.3150119
20
-188.1737483
11
233.4653343
21
-196.295999
0
ARC
8
0
10
233.7777285
20
-195.905602
40
0.5
50
231.3333333
51
321.3333333
0
LINE
8
0
10
234.1681255
20
-196.2179963
11
242.2903762
21
-186.0676739
0
ARC
8
0
10
241.8999792
20
-185.7552797
40
0.5
50
321.3333333
51
51.3333333
0
LINE
8
0
10
242.2123735
20
-185.3648827
11
232.0620511
21
-177.242632
0
ARC
8
0
10
231.7496569
20
-177.633029
40
0.5
50
51.3333333
51
141.3333333
0
LINE
8
0
10
156.6636927
20
-194.7693155
11
156.6636927
21
-181.7693155
0
ARC
8
0
10
156.1636927
20
-181.7693155
40
0.5
50
0
51
90
0
LINE
8
0
10
156.1636927
20
-181.2693155
11
143.1636927
21
-181.2693155
0
ARC
8
0
10
143.1636927
20
-181.7693155
40
0.5
50
90
51
143.1301024
0
ARC
8
0
10
143.1636927
20
-194.7693155
40
0.5
50
216.8698976
51
270
0
LINE
8
0
10
143.1636927
20
-195.2693155
11
156.1636927
21
-195.2693155
0
ARC
8
0
10
156.1636927
20
-194.7693155
40
0.5
50
270
51
0
0
ENDSEC
0
EOF